<svg id="Capa_1" data-name="Capa 1" xmlns="http://www.w3.org/2000/svg" viewBox="0 0 1080 1080"><defs><style>.cls-1{fill:#efbc2e;}</style></defs><path class="cls-1" d="M627.78,368.93c-.79.71-1.63,1.4-2.4,2.17Q601,395.44,576.69,419.81c-8.7,8.72-12.52,19.42-12.33,31.59a60.72,60.72,0,0,0,1,8.89c2.7,16.84.56,33-7.6,48-11.64,21.48-29.53,35-53.56,39.37-41.28,7.53-78.79-19.57-87.37-58.14a75.83,75.83,0,0,1,57-90.21,72.16,72.16,0,0,1,29.95-.78A47.66,47.66,0,0,0,528.45,397a41.84,41.84,0,0,0,14.89-8.85c.92-.85,1.82-1.73,2.71-2.62q39-39,78.05-78.06a43.06,43.06,0,0,0,12.2-22.44,47.84,47.84,0,0,0,0-18.28,75.67,75.67,0,0,1,47.09-84.26,74.14,74.14,0,0,1,53.91-.29,11.88,11.88,0,0,0,7.71.29q23-6.22,46-12.33c1-.27,2.1-.43,3.26-.66.67,1.61,0,2.92-.35,4.22-4,15.18-8.06,30.37-12.24,45.52a12.84,12.84,0,0,0,.31,8.21,75.7,75.7,0,0,1-53.5,99.33,73.76,73.76,0,0,1-31.34.84c-10.52-2-20.66-.83-30.19,4.29A46.55,46.55,0,0,0,653,343.77c.82,1.14,1.52,2.18,2.27,3.18a204.42,204.42,0,0,1,37.36,83.67A211.62,211.62,0,0,1,696.84,477c-.87,40.75-11.8,78.52-34.62,112.45-28.69,42.64-68.24,70.15-117.88,83.13a211.12,211.12,0,0,1-63.56,6.46c-42.74-2-81.75-15-115.91-41.09-37.18-28.38-61.33-65.61-73.28-110.78a207.82,207.82,0,0,1-6.48-65.45c2.7-46.5,18.24-88.12,48.5-123.77,28.72-33.84,65.05-55.39,108.21-65.49a212.24,212.24,0,0,1,52.38-5.42,202.56,202.56,0,0,1,34.22,3.29c.73.14,1.45.33,2.08.48.18,1.38-.72,1.91-1.35,2.55-8.56,8.56-17.17,17.08-25.67,25.69a6.13,6.13,0,0,1-5,1.85,198.27,198.27,0,0,0-24.49.61c-33.09,3-63,14.29-89.2,34.81-32.17,25.22-52.2,58.2-61.18,98a179,179,0,0,0-3.6,53.92c5.48,68.77,49.25,125,110.85,147A170.64,170.64,0,0,0,473,644.59c29.16,2.66,57.41-1,84.56-12.12A167.34,167.34,0,0,0,656.6,518a178.37,178.37,0,0,0,5.49-49.06c-1.07-35-10.91-67.14-30.87-96C630.25,371.5,629.53,369.85,627.78,368.93ZM756,253.15a45.29,45.29,0,1,0-45.27,45.29A45.06,45.06,0,0,0,756,253.15Z"/><path class="cls-1" d="M112,889.44c.57-9.7.35-27.63-.4-31.46-1.57-.55-3.3-.31-5-.32q-19.8,0-39.61,0a33.78,33.78,0,0,1-3.77-.09,3.89,3.89,0,0,1-3.64-3.68,4,4,0,0,1,3.49-4.31,19.92,19.92,0,0,1,3.28-.16c15.72,0,31.44.08,47.16,0,6.16-.06,7,2.07,6.9,6.88-.1,10.85-.12,21.7,0,32.55a8.93,8.93,0,0,1-3.37,7.36,54.82,54.82,0,0,1-29.52,13.56,62.11,62.11,0,0,1-27-2.06,55.33,55.33,0,0,1-38-45.59c-1.36-10.85-.6-21.46,3.92-31.43,9.15-20.14,24.81-31.55,47-33.53A59.53,59.53,0,0,1,98.53,800a53.29,53.29,0,0,1,18.86,11.32,14,14,0,0,1,2.44,2.83,4,4,0,0,1-.72,4.77,4.17,4.17,0,0,1-4.82.52,16.06,16.06,0,0,1-2.16-1.81C96.89,804.05,79.5,802,60.6,807.91c-18.44,7.86-28.91,21.58-30.43,41.74A52,52,0,0,0,32,868.33a47,47,0,0,0,42.6,33.77c7.6.39,15.07-.14,22.26-2.94A42.21,42.21,0,0,0,112,889.44Z"/><path class="cls-1" d="M219.12,797c16,.54,33.33,11.2,44.33,31.8,8.73,16.36,8.15,41.22-5.7,58.76-16.08,20.36-40.15,26.86-61.89,20.68-22-6.27-34.79-21.59-39.18-43.89A58.48,58.48,0,0,1,159,833.66C166.54,811.73,186.8,796.41,219.12,797Zm-55.65,56.37c.55,4.2.68,8.5,1.73,12.58,4.43,17.27,14.88,29.15,32.13,34.52,7.18,2.24,14.61,2.27,22,1.23C241,898.62,259,880.11,260.91,859c1.12-12.57-1.44-24.12-9.29-34.17-11.43-14.63-26.59-21.11-45-19.82a42.77,42.77,0,0,0-25.4,10.16C169.48,825.15,163.83,838,163.47,853.36Z"/><path class="cls-1" d="M814.51,851.93c.43,32.91-25.33,55-49.21,57.8a61.32,61.32,0,0,1-21.07-.7c-18.44-4.28-31.5-15.2-38.68-32.7-6.33-15.4-6.35-31.13.34-46.34,9-20.33,24.86-31.51,47.13-33,17.78-1.16,33.06,4.65,45.57,17.43C809.21,825.29,814.57,838.32,814.51,851.93Zm-58.22,50.23c1,0,1.89,0,2.83,0,23.83-.45,44.49-19.84,47-41.86,1.3-11.29-.31-22-6.49-31.7C786.53,808,764.28,801.16,744,806.39c-18.3,4.72-29,17.29-33.63,35.3-1.3,5.07-1.3,10.27-1.11,15.48C710.11,880,728.74,902.87,756.29,902.16Z"/><path class="cls-1" d="M858.49,814.61a16.29,16.29,0,0,0-.6,6q0,40.57,0,81.13c0,1.57,0,3.15-.11,4.71a3.84,3.84,0,0,1-4,3.81c-2.14-.06-3.62-1.56-3.83-4-.09-.94-.05-1.89-.05-2.83v-100c0-2.55-.23-5.15,2.72-6.77,2.77-.25,4.47,1.6,6.1,3.9q16,22.5,32,44.9,15.48,21.68,31,43.34c.78,1.09,1.37,2.4,3,3.15a10.37,10.37,0,0,0,.4-4.31q0-27.35,0-54.71,0-14.62,0-29.24a24.74,24.74,0,0,1,.17-3.76,3.52,3.52,0,0,1,3.64-3,3.63,3.63,0,0,1,4.07,3.09,20,20,0,0,1,.16,3.29q0,50.22,0,100.46c0,2.6,0,5.08-2.64,6.64-3.06.28-4.71-1.67-6.32-3.94q-16.4-23.06-32.88-46L861.83,819C860.93,817.77,860,816.56,858.49,814.61Z"/><path class="cls-1" d="M401.73,849.13c1.54.81,2.35,1.26,3.18,1.68,9.88,5,14.8,13.22,15.69,24.07a36.88,36.88,0,0,1-.91,11.71,26.47,26.47,0,0,1-11.26,16.28,41,41,0,0,1-17.05,6.46,85.26,85.26,0,0,1-11.73,1c-11.78.12-23.57,0-35.36,0a22.29,22.29,0,0,1-3.75-.18,3.63,3.63,0,0,1-3-3.72,3.53,3.53,0,0,1,2.74-3.88,19,19,0,0,1,4.2-.34q17.44,0,34.89,0A59,59,0,0,0,392.5,901a33.57,33.57,0,0,0,10.48-4.1,18.94,18.94,0,0,0,8.89-12.26,30.24,30.24,0,0,0-.11-14,18.94,18.94,0,0,0-11.23-13.12c-5.1-2.3-10.52-3.14-16-3.53-2.51-.17-5-.13-7.54-.14H344.43a24.79,24.79,0,0,1-3.76-.14,3.65,3.65,0,0,1-3.11-3.61c-.11-2.18.95-3.74,3.05-4.1a24.72,24.72,0,0,1,4.22-.22c10.22,0,20.43,0,30.65,0a64.52,64.52,0,0,0,15-1.35,33.72,33.72,0,0,0,9.63-3.73c5.36-3.25,8.37-7.94,8.67-14.25a35.26,35.26,0,0,0,0-4.24,15.33,15.33,0,0,0-8-12.61,28.82,28.82,0,0,0-11.58-3.75,128.53,128.53,0,0,0-13.15-.93c-10.53-.13-21.06,0-31.59-.05a26.3,26.3,0,0,1-3.77-.12,3.7,3.7,0,0,1-3.12-4.06,3.51,3.51,0,0,1,3.09-3.58,21.21,21.21,0,0,1,3.29-.18c11,0,22,0,33,0,6.29,0,12.58.33,18.67,2.14a53.54,53.54,0,0,1,6.64,2.38c9.37,4.25,14.16,11.68,14.53,21.87s-3.36,18.41-12.2,24C403.81,847.7,403.07,848.23,401.73,849.13Z"/><path class="cls-1" d="M992.3,796.85c9.3,0,18.53.55,27.53,3.12,2,.56,3.91,1.17,5.82,1.88,16.49,6.08,26.77,17.75,30.55,34.87a75.55,75.55,0,0,1-.58,36q-5.83,22.17-26.91,31.37a76.65,76.65,0,0,1-20.89,5.46c-9.38,1.21-18.82.75-28.24.82a8.34,8.34,0,0,1-1.87-.15,4,4,0,0,1-3.11-3.69,3.78,3.78,0,0,1,2.78-3.9,16,16,0,0,1,3.72-.37c4.87-.05,9.74,0,14.61,0a79.81,79.81,0,0,0,22.8-3.05,59.66,59.66,0,0,0,6.64-2.39c11.55-5,19.11-13.55,22.4-25.7a65.13,65.13,0,0,0-.27-35.83c-3.41-11.75-10.9-20-22.07-24.84a66.94,66.94,0,0,0-17.69-4.7c-8.13-1.15-16.31-.83-24.47-.88-1.57,0-3.15.07-4.71-.07a3.86,3.86,0,0,1-3.74-4,3.81,3.81,0,0,1,3.57-3.71,24,24,0,0,1,3.29-.13Z"/><path class="cls-1" d="M628.31,851.63c1.42-1.73,2.43-2.91,3.39-4.14l36.36-46.36a37.38,37.38,0,0,1,2.38-2.92,4.17,4.17,0,0,1,5.55-.39,4.06,4.06,0,0,1,.78,5.15,30.52,30.52,0,0,1-2.5,3.42q-19.2,24.48-38.41,48.94c-.29.38-.6.74-.88,1.12-3.3,4.39-2.82,2.76-2.83,8.07,0,12.57,0,25.15,0,37.72,0,1.1,0,2.2,0,3.3-.13,3.14-1.54,4.8-4,4.74s-3.71-1.71-3.86-4.91c0-1.1,0-2.2,0-3.3,0-12.57-.07-25.15.06-37.72a11.41,11.41,0,0,0-2.66-7.72c-13.15-16.65-26.18-33.39-39.24-50.1-.87-1.11-1.79-2.19-2.55-3.38a4,4,0,0,1,.77-5.49,4.17,4.17,0,0,1,5.53.76c1,1,1.79,2.18,2.66,3.3L625,847.64C625.91,848.85,626.94,850,628.31,851.63Z"/><path class="cls-1" d="M501.74,910.34q-17.19,0-34.38,0a22.74,22.74,0,0,1-4.21-.26,3.9,3.9,0,0,1-.32-7.4,16.69,16.69,0,0,1,4.18-.45c7.22,0,14.44,0,21.67,0q23.55,0,47.1,0a25.21,25.21,0,0,1,4.68.27,4,4,0,0,1-.1,7.71,23.56,23.56,0,0,1-3.76.14Z"/><path class="cls-1" d="M498,857.65H467.32a29.48,29.48,0,0,1-3.76-.14,4,4,0,0,1-.35-7.79,14.19,14.19,0,0,1,3.26-.31h63.17a16.56,16.56,0,0,1,2.82.14,3.82,3.82,0,0,1,3.45,4.29,3.72,3.72,0,0,1-3.54,3.71,33.66,33.66,0,0,1-3.76.1Z"/><path class="cls-1" d="M501.75,804.8q-17.19,0-34.36,0a24.67,24.67,0,0,1-4.22-.21,3.61,3.61,0,0,1-2.84-3.81,3.5,3.5,0,0,1,2.95-3.69,18.84,18.84,0,0,1,3.28-.23h70.6a19.87,19.87,0,0,1,3.28.2,3.49,3.49,0,0,1,3.06,3.6,3.69,3.69,0,0,1-3.16,4,26.21,26.21,0,0,1-3.76.12Z"/></svg>