<?xml version="1.0" encoding="utf-8"?>
<!-- Generator: Adobe Illustrator 25.2.1, SVG Export Plug-In . SVG Version: 6.00 Build 0)  -->
<svg version="1.1" id="Capa_1" xmlns="http://www.w3.org/2000/svg" xmlns:xlink="http://www.w3.org/1999/xlink" x="0px" y="0px"
	 viewBox="0 0 1080 1080" style="enable-background:new 0 0 1080 1080;" xml:space="preserve">
<style type="text/css">
	.st0{fill:#343434;}
	.st1{fill:#FFFFFF;}
</style>
<g>
	<path class="st1" d="M802.98,245.13h-397.7v658.35C220.85,845.97,86.59,673.65,86.59,470.54c0-124.02,50.07-236.55,131.03-318.49
		l-38.45-38.45C88.36,205.39,32.19,331.52,32.19,470.54c0,233.38,158.26,430.46,373.09,489.63c17.77,4.89,35.92,8.86,54.41,11.81
		v-55.16V299.54h343.29V245.13z"/>
	<path class="st1" d="M896.94,109.71l-38.46,38.46c83.24,82.25,134.92,196.39,134.92,322.38c0,240.87-188.81,438.45-426.2,452.57
		V594.9h150.27v-54.41H512.8v382.61v54.52c9.01,0.48,18.08,0.73,27.2,0.73s18.19-0.25,27.2-0.73
		c267.41-14.19,480.61-236.2,480.61-507.08C1047.81,329.55,990.04,201.81,896.94,109.71z"/>
</g>
</svg>
