<svg id="Capa_1" data-name="Capa 1" xmlns="http://www.w3.org/2000/svg" xmlns:xlink="http://www.w3.org/1999/xlink" viewBox="0 0 1080 1080"><defs><style>.cls-1{fill:url(#Degradado_sin_nombre_10);}.cls-2{fill:url(#Degradado_sin_nombre_10-2);}.cls-3{fill:url(#Degradado_sin_nombre_10-3);}.cls-4{fill:url(#Degradado_sin_nombre_10-4);}.cls-5{fill:url(#Degradado_sin_nombre_10-5);}.cls-6{fill:url(#Degradado_sin_nombre_10-6);}.cls-7{fill:url(#Degradado_sin_nombre_10-7);}.cls-8{fill:url(#Degradado_sin_nombre_10-8);}.cls-9{fill:url(#Degradado_sin_nombre_10-9);}.cls-10{fill:url(#Degradado_sin_nombre_10-10);}.cls-11{fill:url(#Degradado_sin_nombre_10-11);}</style><linearGradient id="Degradado_sin_nombre_10" x1="287.28" y1="405.13" x2="791.99" y2="405.13" gradientUnits="userSpaceOnUse"><stop offset="0" stop-color="#ac8a1d"/><stop offset="0.3" stop-color="#efbc2e"/><stop offset="0.56" stop-color="#fcf280"/><stop offset="0.64" stop-color="#f9ed7b"/><stop offset="0.75" stop-color="#f0e06c"/><stop offset="0.86" stop-color="#e1ca53"/><stop offset="0.98" stop-color="#ccab31"/><stop offset="1" stop-color="#c8a62b"/></linearGradient><linearGradient id="Degradado_sin_nombre_10-2" x1="9.6" y1="829.48" x2="1056.93" y2="837.21" xlink:href="#Degradado_sin_nombre_10"/><linearGradient id="Degradado_sin_nombre_10-3" x1="9.6" y1="828.62" x2="1056.94" y2="836.36" xlink:href="#Degradado_sin_nombre_10"/><linearGradient id="Degradado_sin_nombre_10-4" x1="9.63" y1="824.52" x2="1056.97" y2="832.26" xlink:href="#Degradado_sin_nombre_10"/><linearGradient id="Degradado_sin_nombre_10-5" x1="9.64" y1="823.56" x2="1056.98" y2="831.3" xlink:href="#Degradado_sin_nombre_10"/><linearGradient id="Degradado_sin_nombre_10-6" x1="9.61" y1="827.44" x2="1056.95" y2="835.17" xlink:href="#Degradado_sin_nombre_10"/><linearGradient id="Degradado_sin_nombre_10-7" x1="9.65" y1="822.84" x2="1056.98" y2="830.58" xlink:href="#Degradado_sin_nombre_10"/><linearGradient id="Degradado_sin_nombre_10-8" x1="9.63" y1="825.32" x2="1056.96" y2="833.06" xlink:href="#Degradado_sin_nombre_10"/><linearGradient id="Degradado_sin_nombre_10-9" x1="9.23" y1="878.54" x2="1056.57" y2="886.28" xlink:href="#Degradado_sin_nombre_10"/><linearGradient id="Degradado_sin_nombre_10-10" x1="9.62" y1="826.35" x2="1056.96" y2="834.09" xlink:href="#Degradado_sin_nombre_10"/><linearGradient id="Degradado_sin_nombre_10-11" x1="10.01" y1="774.15" x2="1057.34" y2="781.89" xlink:href="#Degradado_sin_nombre_10"/></defs><path class="cls-1" d="M626.91,350.18c-.78.71-1.62,1.4-2.38,2.15q-24.1,24.1-48.2,48.23c-8.62,8.64-12.4,19.22-12.22,31.28a63.81,63.81,0,0,0,1,8.8c2.68,16.68.56,32.64-7.51,47.54-11.53,21.27-29.24,34.64-53,39-40.87,7.45-78-19.38-86.51-57.56a75.07,75.07,0,0,1,56.4-89.31,71.46,71.46,0,0,1,29.66-.78,47.14,47.14,0,0,0,24.4-1.5,41.59,41.59,0,0,0,14.75-8.77c.91-.84,1.8-1.71,2.68-2.59q38.64-38.65,77.28-77.28a42.77,42.77,0,0,0,12.08-22.22,47.51,47.51,0,0,0,0-18.1A74.91,74.91,0,0,1,682,165.63a73.39,73.39,0,0,1,53.36-.29,11.83,11.83,0,0,0,7.65.29q22.74-6.16,45.51-12.21c1-.27,2.07-.42,3.22-.65.66,1.59,0,2.89-.34,4.17-4,15-8,30.08-12.12,45.08a12.7,12.7,0,0,0,.31,8.12,75,75,0,0,1-53,98.35,73.13,73.13,0,0,1-31,.83c-10.42-2-20.45-.82-29.9,4.25a46,46,0,0,0-13.8,11.71c.81,1.13,1.5,2.15,2.25,3.14a202.48,202.48,0,0,1,37,82.84,209.93,209.93,0,0,1,4.18,45.95C694.42,497.56,683.6,535,661,568.55c-28.4,42.21-67.55,69.45-116.71,82.3a208.82,208.82,0,0,1-62.92,6.4c-42.32-2-80.93-14.86-114.76-40.69-36.81-28.1-60.72-65-72.55-109.67a205.27,205.27,0,0,1-6.41-64.81c2.67-46,18.05-87.24,48-122.53C364.1,286,400.07,264.7,442.79,254.71a210,210,0,0,1,51.87-5.37,200.71,200.71,0,0,1,33.88,3.26c.72.13,1.43.32,2.05.47.18,1.37-.7,1.9-1.33,2.52-8.48,8.48-17,16.91-25.42,25.44a6,6,0,0,1-5,1.83,198.37,198.37,0,0,0-24.25.6c-32.76,3-62.38,14.15-88.3,34.47-31.86,25-51.69,57.62-60.58,97a177.43,177.43,0,0,0-3.57,53.39c5.43,68.09,48.77,123.74,109.76,145.56a169.07,169.07,0,0,0,41.8,9.22c28.87,2.63,56.83-1,83.72-12a165.69,165.69,0,0,0,98-113.34,176.82,176.82,0,0,0,5.44-48.58c-1.06-34.61-10.8-66.47-30.57-95.08C629.36,352.73,628.64,351.1,626.91,350.18ZM753.85,235.56A44.84,44.84,0,1,0,709,280.4,44.61,44.61,0,0,0,753.85,235.56Z"/><path class="cls-2" d="M116.29,865.52c.55-9.6.34-27.35-.4-31.14-1.56-.55-3.27-.31-4.94-.32q-19.62,0-39.22,0A35.6,35.6,0,0,1,68,834a3.84,3.84,0,0,1-3.6-3.64,3.94,3.94,0,0,1,3.44-4.27,19.68,19.68,0,0,1,3.26-.16c15.56,0,31.13.08,46.69,0,6.09-.06,6.88,2,6.83,6.81-.1,10.74-.12,21.49,0,32.23a8.85,8.85,0,0,1-3.33,7.28,54.27,54.27,0,0,1-29.24,13.43,61.3,61.3,0,0,1-26.76-2,54.77,54.77,0,0,1-37.66-45.14c-1.34-10.73-.59-21.25,3.88-31.11,9.06-19.94,24.56-31.24,46.52-33.2A58.8,58.8,0,0,1,102.91,777a52.63,52.63,0,0,1,18.68,11.2A13.69,13.69,0,0,1,124,791a3.94,3.94,0,0,1-.72,4.72,4.12,4.12,0,0,1-4.77.52,16.51,16.51,0,0,1-2.14-1.79c-15.09-13.42-32.31-15.47-51-9.59-18.25,7.78-28.62,21.36-30.12,41.32a51.72,51.72,0,0,0,1.8,18.5,46.52,46.52,0,0,0,42.17,33.43c7.53.38,14.93-.14,22-2.91A41.79,41.79,0,0,0,116.29,865.52Z"/><path class="cls-3" d="M222.31,774c15.8.53,33,11.09,43.88,31.48,8.65,16.21,8.07,40.81-5.64,58.18-15.91,20.16-39.75,26.6-61.27,20.47-21.79-6.2-34.44-21.37-38.79-43.45a57.84,57.84,0,0,1,2.3-30.37C170.25,788.58,190.31,773.41,222.31,774Zm-55.1,55.81c.55,4.16.68,8.42,1.71,12.45,4.39,17.11,14.73,28.87,31.81,34.19,7.11,2.21,14.47,2.24,21.75,1.21,21.52-3,39.35-21.36,41.21-42.29,1.1-12.45-1.43-23.89-9.2-33.83-11.32-14.49-26.33-20.91-44.58-19.62A42.33,42.33,0,0,0,184.77,792C173.16,801.87,167.57,814.55,167.21,829.8Z"/><path class="cls-4" d="M811.78,828.38c.43,32.58-25.08,54.47-48.72,57.23a60.36,60.36,0,0,1-20.86-.7c-18.26-4.22-31.18-15-38.3-32.37-6.26-15.24-6.28-30.82.34-45.87,8.87-20.13,24.61-31.21,46.67-32.65,17.59-1.16,32.73,4.59,45.11,17.25C806.54,802,811.84,814.91,811.78,828.38Zm-57.64,49.74h2.8c23.59-.45,44-19.64,46.56-41.45,1.28-11.18-.31-21.79-6.43-31.38-13-20.35-35-27.17-55.07-22-18.12,4.67-28.7,17.12-33.29,35-1.29,5-1.29,10.17-1.1,15.32C708.42,856.16,726.86,878.82,754.14,878.12Z"/><path class="cls-5" d="M855.33,791.44a16,16,0,0,0-.6,6q0,40.15,0,80.32c0,1.56,0,3.12-.1,4.67a3.8,3.8,0,0,1-3.93,3.76c-2.12,0-3.58-1.53-3.79-3.93-.09-.92,0-1.86,0-2.8v-99c0-2.52-.23-5.1,2.7-6.71,2.74-.24,4.42,1.59,6,3.87q15.79,22.27,31.72,44.45Q902.64,843.51,918,865c.77,1.08,1.37,2.38,3,3.12a10.18,10.18,0,0,0,.41-4.27q0-27.07,0-54.16,0-14.48,0-29a25.61,25.61,0,0,1,.17-3.72,3.5,3.5,0,0,1,3.61-3,3.6,3.6,0,0,1,4,3.06,20.82,20.82,0,0,1,.15,3.26q0,49.72,0,99.46c0,2.57,0,5-2.61,6.58-3,.28-4.66-1.66-6.26-3.91Q904.27,859.6,888,836.83q-14.67-20.51-29.32-41C857.74,794.57,856.79,793.37,855.33,791.44Z"/><path class="cls-6" d="M403.1,825.61c1.52.81,2.33,1.25,3.15,1.66,9.78,5,14.66,13.1,15.53,23.84a36.44,36.44,0,0,1-.89,11.59,26.25,26.25,0,0,1-11.15,16.12,40.72,40.72,0,0,1-16.88,6.4,83.64,83.64,0,0,1-11.61.95c-11.67.12-23.34.05-35,0a21.88,21.88,0,0,1-3.72-.18,3.6,3.6,0,0,1-3-3.68,3.5,3.5,0,0,1,2.71-3.85,19.31,19.31,0,0,1,4.17-.33q17.26,0,34.54,0a57.83,57.83,0,0,0,13-1.2,33.46,33.46,0,0,0,10.37-4.06,18.73,18.73,0,0,0,8.8-12.14,29.78,29.78,0,0,0-.11-13.89,18.75,18.75,0,0,0-11.12-13c-5-2.28-10.41-3.11-15.86-3.49-2.48-.18-5-.14-7.46-.14H346.38a24.35,24.35,0,0,1-3.73-.14,3.62,3.62,0,0,1-3.08-3.58,3.56,3.56,0,0,1,3-4.06,25.3,25.3,0,0,1,4.18-.21c10.12,0,20.23,0,30.34,0A64.41,64.41,0,0,0,392,820.88a33.32,33.32,0,0,0,9.53-3.69c5.3-3.21,8.29-7.86,8.59-14.11a34.6,34.6,0,0,0-.06-4.2,15.2,15.2,0,0,0-7.88-12.49,28.52,28.52,0,0,0-11.46-3.7,123.47,123.47,0,0,0-13-.92c-10.42-.13-20.85,0-31.28,0a25.61,25.61,0,0,1-3.72-.12,3.67,3.67,0,0,1-3.1-4,3.48,3.48,0,0,1,3.06-3.54,20.83,20.83,0,0,1,3.26-.17c10.89,0,21.78-.05,32.68,0,6.23,0,12.45.32,18.48,2.12a50.32,50.32,0,0,1,6.57,2.35c9.29,4.2,14,11.56,14.39,21.65s-3.32,18.23-12.08,23.73C405.16,824.19,404.43,824.72,403.1,825.61Z"/><path class="cls-7" d="M987.81,773.85c9.2,0,18.34.55,27.25,3.1,1.94.55,3.87,1.15,5.76,1.85,16.33,6,26.5,17.58,30.25,34.53a74.82,74.82,0,0,1-.57,35.6q-5.77,21.95-26.65,31.06a75.5,75.5,0,0,1-20.67,5.4c-9.3,1.2-18.64.75-28,.81a8.16,8.16,0,0,1-1.85-.14,4,4,0,0,1-3.07-3.66,3.7,3.7,0,0,1,2.75-3.85,15.09,15.09,0,0,1,3.68-.38c4.82,0,9.64,0,14.46,0a79,79,0,0,0,22.58-3,56.53,56.53,0,0,0,6.57-2.37c11.44-4.93,18.92-13.42,22.17-25.44a64.54,64.54,0,0,0-.26-35.48c-3.38-11.63-10.79-19.75-21.85-24.59a66.44,66.44,0,0,0-17.52-4.66c-8-1.13-16.14-.82-24.22-.87-1.56,0-3.12.07-4.67-.07a3.79,3.79,0,0,1-3.69-4,3.76,3.76,0,0,1,3.52-3.67,27.34,27.34,0,0,1,3.26-.13Z"/><path class="cls-8" d="M627.44,828.09c1.4-1.71,2.4-2.88,3.35-4.1l36-45.9a36.55,36.55,0,0,1,2.35-2.89,4.13,4.13,0,0,1,5.5-.38,4,4,0,0,1,.77,5.09,31.19,31.19,0,0,1-2.47,3.39q-19,24.24-38,48.46c-.28.36-.58.72-.86,1.1-3.27,4.34-2.79,2.74-2.81,8,0,12.45,0,24.9,0,37.35,0,1.08,0,2.18,0,3.26-.13,3.11-1.53,4.75-4,4.69s-3.68-1.69-3.82-4.86c0-1.08,0-2.17,0-3.26,0-12.45-.07-24.9.05-37.35a11.3,11.3,0,0,0-2.63-7.64c-13-16.48-25.92-33-38.85-49.6a40.71,40.71,0,0,1-2.52-3.35,4,4,0,0,1,.76-5.43,4.12,4.12,0,0,1,5.47.75c1,1,1.77,2.16,2.64,3.26l35.79,45.47C625.06,825.33,626.07,826.47,627.44,828.09Z"/><path class="cls-9" d="M502.12,886.22h-34a23.19,23.19,0,0,1-4.17-.26,3.87,3.87,0,0,1-.31-7.33,16.79,16.79,0,0,1,4.14-.45c7.15,0,14.3,0,21.45,0q23.31,0,46.63,0a25.6,25.6,0,0,1,4.64.26,3.58,3.58,0,0,1,3,4.08,3.62,3.62,0,0,1-3.11,3.56,24.22,24.22,0,0,1-3.72.14Z"/><path class="cls-10" d="M498.38,834.05H468.05a27.19,27.19,0,0,1-3.73-.13,4,4,0,0,1-.35-7.72,13.93,13.93,0,0,1,3.23-.29q31.28,0,62.54,0a16.21,16.21,0,0,1,2.79.14,3.78,3.78,0,0,1,3.42,4.25,3.68,3.68,0,0,1-3.5,3.67,33.12,33.12,0,0,1-3.73.1Z"/><path class="cls-11" d="M502.13,781.72h-34a25.24,25.24,0,0,1-4.18-.21,3.58,3.58,0,0,1-2.81-3.77,3.48,3.48,0,0,1,2.92-3.66,17.58,17.58,0,0,1,3.25-.22h69.9a19.5,19.5,0,0,1,3.25.19,3.46,3.46,0,0,1,3,3.56,3.65,3.65,0,0,1-3.14,4,25.61,25.61,0,0,1-3.72.13Z"/></svg>