<svg id="Capa_1" data-name="Capa 1" xmlns="http://www.w3.org/2000/svg" viewBox="0 0 1080 1080"><defs><style>.cls-1{fill:#343434;}.cls-2{fill:#fff;}</style></defs><rect class="cls-1" x="49.65" y="49.65" width="980.71" height="980.71"/><path class="cls-2" d="M668.13,394.37H474.36V715.13c-89.86-28-155.27-112-155.27-210.94A220.16,220.16,0,0,1,382.93,349l-18.74-18.74a246.63,246.63,0,0,0-71.61,173.91c0,113.71,77.11,209.73,181.78,238.56a244.85,244.85,0,0,0,26.51,5.76V420.88H668.13Z"/><path class="cls-2" d="M713.91,328.39l-18.73,18.73a220.28,220.28,0,0,1,65.73,157.07c0,117.36-92,213.62-207.66,220.5V564.79h73.22V538.28H526.75v213q6.59.35,13.25.35t13.25-.35c130.29-6.92,234.17-115.09,234.17-247.07A246.64,246.64,0,0,0,713.91,328.39Z"/></svg>