<svg id="Capa_1" data-name="Capa 1" xmlns="http://www.w3.org/2000/svg" xmlns:xlink="http://www.w3.org/1999/xlink" viewBox="0 0 1080 331.73"><defs><style>.cls-1{fill:none;}.cls-2{fill:#fff;}.cls-3{clip-path:url(#clip-path);}.cls-4{fill:#f6f6f6;}</style><clipPath id="clip-path"><path class="cls-1" d="M280.64,189.81C274.29,173.54,253.31,171,253.31,171H50.92s-21,2.51-27.33,18.78S18.5,223,38.21,246.12s65.48,43.81,109.35,43.81h9.11c43.87,0,89.64-20.65,109.35-43.81S287,206.08,280.64,189.81Z"/></clipPath></defs><circle class="cls-2" cx="63.15" cy="88.3" r="35.18"/><circle class="cls-2" cx="241.55" cy="88.3" r="35.18"/><g class="cls-3"><path class="cls-2" d="M280.64,189.81C274.29,173.54,253.31,171,253.31,171H50.92s-21,2.51-27.33,18.78S18.5,223,38.21,246.12s65.48,43.81,109.35,43.81h9.11c43.87,0,89.64-20.65,109.35-43.81S287,206.08,280.64,189.81Z"/><path class="cls-2" d="M82.14,171s8.12,37.76,70,65.29,116.13,7.12,116.13,7.12"/><path class="cls-4" d="M220,251.08a166.84,166.84,0,0,1-68.08-14.36c-61.36-27.31-70.14-65.21-70.22-65.59l.85-.19c.09.38,8.81,37.87,69.72,65s115.26,7.31,115.8,7.11l.31.82C268.07,244,248.62,251.08,220,251.08Z"/><path class="cls-4" d="M84,251.08c-28.6,0-48.05-7.11-48.37-7.23L36,243c.54.2,54.82,20,115.79-7.11s69.64-64.6,69.72-65l.86.19c-.08.37-8.87,38.28-70.22,65.59A166.89,166.89,0,0,1,84,251.08Z"/></g><path class="cls-2" d="M482,236.63V93.14a2.29,2.29,0,0,1,2.29-2.29h22a2.28,2.28,0,0,1,2.29,2.29V236.63a1.62,1.62,0,0,1-1.62,1.63H483.58A1.63,1.63,0,0,1,482,236.63Z"/><path class="cls-2" d="M613.45,224h-1.79A37.11,37.11,0,0,1,597.79,237a40.52,40.52,0,0,1-19.91,4.81q-20.8,0-31-12.75t-10.17-34V131.5a1.45,1.45,0,0,1,1.45-1.46h25.38A1.46,1.46,0,0,1,565,131.5v64.77q0,11.86,5.26,17.56c3.5,3.8,9.62,5.7,16.33,5.7A21.3,21.3,0,0,0,597.23,217a24.76,24.76,0,0,0,7.83-6.93A31.5,31.5,0,0,0,610,199.74a46.18,46.18,0,0,0,1.68-12.64V131.5a1.46,1.46,0,0,1,1.46-1.46h24.15a1.45,1.45,0,0,1,1.45,1.46V236.8a1.45,1.45,0,0,1-1.45,1.46H614.9a1.45,1.45,0,0,1-1.45-1.46Z"/><path class="cls-2" d="M669.57,130.69h20.77a1.59,1.59,0,0,1,1.59,1.59v12.46h1.71a37.52,37.52,0,0,1,32.07-17.57q12,0,20.09,5.71a32.72,32.72,0,0,1,9.87,10.6,2.35,2.35,0,0,0,3.91.17A45,45,0,0,1,771.25,133q9-5.81,21.8-5.82a40.32,40.32,0,0,1,16.68,3.19,31.12,31.12,0,0,1,11.65,8.89,39.36,39.36,0,0,1,7,13.72,62,62,0,0,1,2.35,17.45v66.4a1.43,1.43,0,0,1-1.44,1.44H804.11a1.44,1.44,0,0,1-1.44-1.44V171c0-14.64-9.55-22-21.24-22-16.9,0-19.38,18.72-19.38,23.25v64.56a1.43,1.43,0,0,1-1.43,1.44H735.48a1.43,1.43,0,0,1-1.43-1.44V171c0-14.64-7.74-22-20-22-19.31,0-20.41,18-20.41,22.52v65.14a1.59,1.59,0,0,1-1.59,1.59H669.57a1.59,1.59,0,0,1-1.59-1.59V132.28A1.59,1.59,0,0,1,669.57,130.69Z"/><path class="cls-2" d="M951.69,162.57A51,51,0,0,0,942.12,145a43.77,43.77,0,0,0-15.68-11.66,51.6,51.6,0,0,0-21.38-4.21,47.77,47.77,0,0,0-20.88,4.53,52.39,52.39,0,0,0-16.39,12.21A55.66,55.66,0,0,0,857,163.75a60.83,60.83,0,0,0-3.87,21.71,62,62,0,0,0,4,22.58,54.07,54.07,0,0,0,11.1,17.82A50.58,50.58,0,0,0,885,237.63a52.18,52.18,0,0,0,21.08,4.21q16.89,0,28.61-8c7.14-4.88,14.32-13.92,19-22a1.47,1.47,0,0,0-1.28-2.21l-23.71.2a3.43,3.43,0,0,0-2.93,1.7,22,22,0,0,1-5,6.28q-6,4.42-15.17,4.43a30.31,30.31,0,0,1-9.16-1.41,23.89,23.89,0,0,1-8.25-4.53,26.53,26.53,0,0,1-6.32-7.78c-1.43-2.61-3-8.74-2.82-13.84a2.8,2.8,0,0,1,2.77-2.71H952a2.81,2.81,0,0,0,2.73-2.35v0a16.12,16.12,0,0,1,.2-2.38V184.6A71.79,71.79,0,0,0,951.69,162.57ZM928.16,173a2.28,2.28,0,0,1-2.27,2.11l-44.6-.07A1.3,1.3,0,0,1,880,174a24.19,24.19,0,1,1,48.22-3.21C928.24,171.51,928.21,172.28,928.16,173Z"/><path class="cls-2" d="M978.66,130.9v109a2,2,0,0,0,2,2h24.14a2,2,0,0,0,2-2V173.25s0-10.83,12.44-17.54c6.87-3.7,29.23-1,29.23-1V129.09s-14.27-1.64-26.12,2c-6.48,2-15.17,11-15.36,11.93s-1.53,1.53-1.53.38v-12.6a1.73,1.73,0,0,0-1.74-1.73l-23.21,0A1.82,1.82,0,0,0,978.66,130.9Z"/><path class="cls-2" d="M405.4,129a55.66,55.66,0,0,0-35.23,12.51V92.32H346.69V240.84h23.48v-12.5A55.9,55.9,0,1,0,405.4,129ZM402,224.59a38.7,38.7,0,1,1,38.69-38.7A38.7,38.7,0,0,1,402,224.59Z"/></svg>