<svg id="Capa_1" data-name="Capa 1" xmlns="http://www.w3.org/2000/svg" viewBox="0 0 432 419.71"><defs><style>.cls-1{fill:#7c04a4;}.cls-2{fill:#311e8a;}</style></defs><path class="cls-1" d="M368.1,356.84H347.17v-24H368.1a32.72,32.72,0,0,0,32.68-32.69V66.21A32.72,32.72,0,0,0,368.1,33.53H134.17a32.72,32.72,0,0,0-32.68,32.68V76.68h-24V66.21A56.75,56.75,0,0,1,134.17,9.52H368.1a56.75,56.75,0,0,1,56.69,56.69V300.14A56.76,56.76,0,0,1,368.1,356.84Z"/><path class="cls-2" d="M299.63,412H65.71A56.77,56.77,0,0,1,9,355.29V121.37a56.77,56.77,0,0,1,56.7-56.7H299.63a56.77,56.77,0,0,1,56.7,56.7V355.29A56.77,56.77,0,0,1,299.63,412ZM65.71,88.68A32.73,32.73,0,0,0,33,121.37V355.29A32.73,32.73,0,0,0,65.71,388H299.63a32.73,32.73,0,0,0,32.69-32.69V121.37a32.73,32.73,0,0,0-32.69-32.69Z"/></svg>