<svg id="Capa_1" data-name="Capa 1" xmlns="http://www.w3.org/2000/svg" viewBox="0 0 460.51 459.88"><defs><style>.cls-1{fill:#2c1f88;}</style></defs><path class="cls-1" d="M80.42,449.18H8.51V375.26L161.17,220.59a150.39,150.39,0,0,1-13.41-62.53c0-83.8,68.17-152,152-152s152,68.17,152,152-68.18,152-152,152a150.26,150.26,0,0,1-67-15.54l-45.46,47.68H156.12l1.82,22.87-30.4,34.75h-31v31.52ZM28.3,429.39H71.61l5.09-5.66V380h41.86l19-21.7-2.88-35.91h44.11l48.61-51L240,276a130.78,130.78,0,0,0,59.71,14.23c72.89,0,132.19-59.3,132.19-132.19S372.62,25.88,299.73,25.88,167.55,85.18,167.55,158.06a130.74,130.74,0,0,0,14.38,60l3.25,6.37L28.3,383.38Z"/><path class="cls-1" d="M332.2,173.22a52,52,0,1,1,52-52A52.08,52.08,0,0,1,332.2,173.22Zm0-84.23a32.22,32.22,0,1,0,32.22,32.21A32.26,32.26,0,0,0,332.2,89Z"/></svg>