<svg id="Capa_1" data-name="Capa 1" xmlns="http://www.w3.org/2000/svg" viewBox="0 0 446.26 493.91"><defs><style>.cls-1{fill:#2b2088;}.cls-2{fill:#7a05a3;}.cls-3{fill:#fff;}.cls-4{fill:#242285;}.cls-5{fill:#8003a5;}</style></defs><path class="cls-1" d="M428,244.59l-26.77-26.77C397.58,122,318.8,45.46,222.1,45.46S46.62,122,43,217.82L16.19,244.59a31.88,31.88,0,0,0,0,45.07L199.57,473a31.86,31.86,0,0,0,45.07,0L428,289.66A31.88,31.88,0,0,0,428,244.59ZM222.1,385.22A152.37,152.37,0,1,1,374.47,232.85,152.37,152.37,0,0,1,222.1,385.22Z"/><path class="cls-2" d="M222.1,409.18c-97.23,0-176.33-79.1-176.33-176.33S124.87,56.53,222.1,56.53s176.32,79.1,176.32,176.32S319.33,409.18,222.1,409.18Zm0-330c-84.76,0-153.72,69-153.72,153.71s69,153.72,153.72,153.72,153.71-69,153.71-153.72S306.86,79.14,222.1,79.14Z"/><path class="cls-3" d="M222.1,328.55l-80.38-46.41V189.33l80.38-46.41,80.38,46.41v92.81Zm-48.73-64.68L222.1,292l48.73-28.13V207.6L222.1,179.47,173.37,207.6Z"/><path class="cls-4" d="M244.47,248V223.42a1.07,1.07,0,0,0-.52-.91L222.63,210.2a1.06,1.06,0,0,0-1.06,0l-21.32,12.31a1.07,1.07,0,0,0-.52.91V248a1,1,0,0,0,.52.91l21.32,12.31a1.06,1.06,0,0,0,1.06,0L244,249A1,1,0,0,0,244.47,248Z"/><circle class="cls-2" cx="115.46" cy="368.18" r="29.7"/><path class="cls-3" d="M115.46,402.4a34.22,34.22,0,1,1,34.22-34.22A34.26,34.26,0,0,1,115.46,402.4Zm0-59.4a25.18,25.18,0,1,0,25.18,25.18A25.2,25.2,0,0,0,115.46,343Z"/><circle class="cls-2" cx="329.81" cy="368.18" r="29.7"/><path class="cls-3" d="M329.81,402.4A34.22,34.22,0,1,1,364,368.18,34.26,34.26,0,0,1,329.81,402.4Zm0-59.4A25.18,25.18,0,1,0,355,368.18,25.2,25.2,0,0,0,329.81,343Z"/><circle class="cls-2" cx="219.22" cy="397.87" r="29.7"/><path class="cls-3" d="M219.22,432.09a34.22,34.22,0,1,1,34.22-34.22A34.26,34.26,0,0,1,219.22,432.09Zm0-59.39a25.18,25.18,0,1,0,25.18,25.17A25.2,25.2,0,0,0,219.22,372.7Z"/><polygon class="cls-5" points="236.6 45.67 263.11 60.16 236.6 74.66 222.1 101.17 207.6 74.66 181.09 60.16 207.6 45.67 222.1 19.16 236.6 45.67"/><path class="cls-3" d="M222.1,110.6,204.27,78l-32.6-17.83,32.6-17.83L222.1,9.73l17.83,32.6,32.6,17.83L239.93,78ZM190.51,60.16l20.42,11.18L222.1,91.75l11.17-20.41,20.42-11.18L233.27,49,222.1,28.58,210.93,49Z"/></svg>