<?xml version="1.0" encoding="utf-8"?>
<!-- Generator: Adobe Illustrator 25.2.1, SVG Export Plug-In . SVG Version: 6.00 Build 0)  -->
<svg version="1.1" id="Capa_1" xmlns="http://www.w3.org/2000/svg" xmlns:xlink="http://www.w3.org/1999/xlink" x="0px" y="0px"
	 viewBox="0 0 425.2 425.2" style="enable-background:new 0 0 425.2 425.2;" xml:space="preserve">
<style type="text/css">
	.st0{opacity:0.32;fill:#9D8EC5;enable-background:new    ;}
	.st1{fill:#71317F;}
	.st2{clip-path:url(#SVGID_2_);}
	.st3{fill:#CCC029;}
	.st4{fill:#C5D2DB;}
	.st5{fill:#F9BB8D;}
	.st6{fill:#D99870;}
	.st7{fill:#E5D7D8;}
	.st8{fill:#F0E8E4;}
	.st9{fill:#3D2216;}
	.st10{fill:#AFAAA8;}
</style>
<g>
	<g id="Capa_1_1_">
		<circle class="st0" cx="212.6" cy="208.7" r="198.73"/>
		<circle class="st1" cx="212.6" cy="227.83" r="131.87"/>
		<g>
			<defs>
				<circle id="SVGID_1_" cx="212.6" cy="227.83" r="131.87"/>
			</defs>
			<clipPath id="SVGID_2_">
				<use xlink:href="#SVGID_1_"  style="overflow:visible;"/>
			</clipPath>
			<g class="st2">
				<path class="st3" d="M77.54,339.6l128.76,34.33l128.76-34.33c0,0-5.08-63.21-13.52-72.69s-84.08-38.42-84.08-38.42h-57.82
					c0,0-82.81,27.35-87.44,38.42C87.57,277.98,77.54,339.6,77.54,339.6z"/>
				<path class="st4" d="M198.2,236.1l-18.56-7.63c0,0-82.81,27.37-87.44,38.44c-4.63,11.07-14.66,72.69-14.66,72.69l30.9,8.23
					c0,0,13.11-69.85,17.73-80.92C130.62,256.27,193.33,237.56,198.2,236.1z"/>
			</g>
		</g>
		<path class="st5" d="M153.81,145.1c-1.26-6.36-7.31-12.28-15.61-10.46s-8.33,9.56-7.07,15.92c0.07,0.33,4.16,17.52,6.56,21.14
			s5.88,10.5,11.71,8.54c3.86-1.3,6.14-8.17,7-13.14S153.81,145.1,153.81,145.1z"/>
		<path class="st5" d="M259.47,144.88c1.26-6.36,7.31-12.27,15.62-10.46s9.12,9.79,7.86,16.14c-0.07,0.34-4.49,16.25-6.56,21.15
			c-1.7,4-6.34,11.14-12.36,8.65c-3.77-1.55-6.28-8.51-7.19-13.47S259.47,144.88,259.47,144.88z"/>
		<path class="st6" d="M173.67,231.88c0,0,21.21,17.4,33.11,17.4s33.1-17.4,33.1-17.4c-5.36-6.91-6.43-16.22-2.79-24.17
			c6.19-13.72-69-12.6-60.25,0S173.67,231.88,173.67,231.88z"/>
		<path class="st7" d="M195.71,246.1c1.97-5.03,5.4-9.36,9.85-12.42c5.09-3.71,8.11-0.38,29.64-12.74
			c-0.7-4.51-0.04-9.13,1.89-13.27c6.19-13.72-69-12.6-60.25,0s-3.17,24.17-3.17,24.17S185,241.1,195.71,246.1z"/>
		<path class="st5" d="M267.58,109.67c0-25-17.09-50.06-62.34-50.06s-61.68,27.43-61.68,52.42c0,1.32-0.14,69.26,8.65,84.87
			s33,31.52,54.57,31.59c23.62,0.09,44.84-13.66,54.76-31.59S267.58,109.67,267.58,109.67z"/>
		<path class="st8" d="M143.77,126.4c9,1.56,34.82-17.2,43.58-14.94c15.42,4,48.91,34.16,77.36,33.53c7.48-6,2.74-39.62,2.74-39.62
			c0-22.93-17.09-45.93-62.33-45.93c-37.49,0-55.12,17.28-60.12,36.25C144,100.61,143.44,116.19,143.77,126.4z"/>
		<path class="st8" d="M259.8,199.85c-0.01,0.01-0.02,0.01-0.03,0.02c0-0.01,0.01-0.01,0.01-0.02c-0.26,0.18-1.41,0.9-1.35,0.87
			c-10.14,6.45-21.9,9.9-33.94,9.93c-21.6-0.07-45.78-16-54.56-31.53c-8.78-15.53-8.65-83.37-8.65-84.68
			c-0.05-8.96,2.2-17.78,6.54-25.62c-17.26,10.08-24.26,27.28-24.26,43.46c0,1.31-0.14,69.11,8.65,84.68
			c8.79,15.57,33,31.46,54.57,31.53c22.2,0.08,42.26-12.04,52.81-28.36C259.66,200.04,259.74,199.94,259.8,199.85z"/>
		<path class="st8" d="M217,223.23c-21.6-0.07-45.78-16-54.57-31.53s-8.64-83.37-8.64-84.68c-0.09-11.71,3.87-23.09,11.21-32.21
			c0.81-2.06,1.76-4.07,2.84-6c-17.28,10.09-24.28,27.29-24.28,43.47c0,1.31-0.14,69.11,8.65,84.68s33,31.46,54.57,31.53
			c11.86-0.04,23.46-3.42,33.49-9.75C232.87,221.71,224.97,223.23,217,223.23z"/>
		<path class="st9" d="M280.39,93.82c-5.56-29.33-30.39-50.61-70.92-50.36s-67,24.18-72.32,51.34c-2.28,11.63,1,33.74,2,46.92
			c6.84-5.44,36.5-21,45.61-39.59c28.85-1.22,47.07,34.48,78.71,36.44c2.2-0.27,4.39,0.62,5.77,2.36c2.23-6,10.17-5.22,13.45-2.6
			C284.24,127.35,283.47,110.03,280.39,93.82z"/>
		<g>
			<path class="st10" d="M185.11,88.47c-9.11,18.49-34.92,33.42-47.11,36.88c0-0.6,0,0,0-0.6c-0.22,5.78,1.26,12.49,1.57,17
				c6.85-5.41,36.5-20.89,45.61-39.39c28.73-1.2,46.93,34,78.32,36.2C240.28,130.81,214,87.26,185.11,88.47z"/>
		</g>
		<path class="st5" d="M138.2,134.68c-8.3,1.82-8.33,9.56-7.07,15.92c0.07,0.33,4.16,17.52,6.56,21.14S146.5,132.86,138.2,134.68z"
			/>
	</g>
</g>
</svg>
